<svg xmlns="http://www.w3.org/2000/svg" viewBox="0 0 21.5 17.62"><defs><style>.cls-1{fill:#4e454a;fill-rule:evenodd;}</style></defs><title>Twitter_1</title><g id="Layer_2" data-name="Layer 2"><g id="Layer_1-2" data-name="Layer 1"><g id="new_icons" data-name="new icons"><path class="cls-1" d="M0,15.66a9.64,9.64,0,0,0,4.62-.79,8.33,8.33,0,0,0,1.86-1.11,4.58,4.58,0,0,1-1.92-.48,4.34,4.34,0,0,1-2.11-2.37.46.46,0,0,1-.05-.2,5.44,5.44,0,0,0,1.84-.13,4.3,4.3,0,0,1-1.05-.4A4.47,4.47,0,0,1,.79,6.41c0-.1,0-.16,0-.18s.18,0,.18,0a6.62,6.62,0,0,0,1.74.48c-.28-.26-.52-.46-.74-.68a4.53,4.53,0,0,1-.7-5c.11-.22.14-.22.29,0A12.58,12.58,0,0,0,9.34,5.31c.32.06.66.07,1,.13s.25-.07.22-.24a4.43,4.43,0,0,1,7.42-4,.51.51,0,0,0,.49.12A8.58,8.58,0,0,0,20.79.42.52.52,0,0,0,21,.31a4.43,4.43,0,0,1-1.87,2.44,9.07,9.07,0,0,0,2.39-.63c0,.11-.07.18-.11.25a8.64,8.64,0,0,1-1.84,1.88.4.4,0,0,0-.17.37,12.86,12.86,0,0,1-3.06,8.66,12,12,0,0,1-7.4,4.15A12.67,12.67,0,0,1,.09,15.72.2.2,0,0,0,0,15.66Z"/></g></g></g></svg>