<svg id="Capa_1" enable-background="new 0 0 512.001 512.001" height="512" viewBox="0 0 512.001 512.001" width="512" xmlns="http://www.w3.org/2000/svg"><g><g><path d="m270.239 204.28 6.052-81.644-78.739 115.089h53.506l-11.079 81.855 74.47-116.936z" fill="#fff59b"/></g><g fill="#020288"><path d="m256 66.791c-85.092 0-154.318 69.226-154.318 154.317 0 85.09 69.227 154.316 154.318 154.316s154.318-69.226 154.318-154.316c.001-85.091-69.226-154.317-154.318-154.317zm0 288.633c-74.064 0-134.318-60.254-134.318-134.316s60.255-134.317 134.318-134.317 134.318 60.254 134.318 134.317-60.254 134.316-134.318 134.316z"/><path d="m413.539 65.961c-40.949-41.575-95.605-64.99-153.902-65.931-59.925-.974-116.349 21.504-158.832 63.275-42.46 41.749-65.869 97.73-65.915 157.632-.061 80.801 43.94 155.178 114.831 194.104 38.848 21.331 72.482 52.949 97.268 91.434l.604.938c1.84 2.858 5.006 4.586 8.406 4.587h.002c3.398 0 6.564-1.726 8.406-4.583l.604-.939c24.271-37.686 58.564-69.67 99.174-92.495 69.655-39.148 112.926-113.054 112.926-192.876 0-58.426-22.577-113.524-63.572-155.146zm-59.153 330.588c-39.258 22.064-73.024 52.173-98.373 87.594-25.67-36.086-58.858-65.872-96.665-86.632-64.487-35.41-104.513-103.063-104.458-176.558.041-54.501 21.327-105.423 59.938-143.386 37.835-37.202 87.824-57.567 141.106-57.567 1.122 0 2.256.009 3.381.027 109.064 1.761 197.796 91.965 197.796 201.081 0 72.603-39.363 139.828-102.725 175.441z"/></g></g></svg>