<svg xmlns="http://www.w3.org/2000/svg" viewBox="0 0 22.2 22.2"><defs><style>.cls-1{fill:#4e454a;}</style></defs><title>instegram_1</title><g id="Layer_2" data-name="Layer 2"><g id="Layer_1-2" data-name="Layer 1"><g id="new_icons" data-name="new icons"><g id="_Group_" data-name=" Group "><path id="_Compound_Path_" data-name=" Compound Path " class="cls-1" d="M15.4,22.2H6.8A6.79,6.79,0,0,1,0,15.4V6.8A6.79,6.79,0,0,1,6.8,0h8.6a6.79,6.79,0,0,1,6.8,6.8v8.6A6.79,6.79,0,0,1,15.4,22.2ZM6.8,1.66A5.15,5.15,0,0,0,1.66,6.8v8.6A5.15,5.15,0,0,0,6.8,20.54h8.6a5.15,5.15,0,0,0,5.14-5.14V6.8A5.15,5.15,0,0,0,15.4,1.66Z"/><path id="_Compound_Path_2" data-name=" Compound Path 2" class="cls-1" d="M11.1,16.72a5.62,5.62,0,1,1,5.62-5.62A5.62,5.62,0,0,1,11.1,16.72Zm0-9.53A3.91,3.91,0,1,0,15,11.1h0A3.91,3.91,0,0,0,11.1,7.19Z"/><path id="_Path_" data-name=" Path " class="cls-1" d="M18.79,4.87a1.47,1.47,0,1,1-1.46-1.46h0a1.47,1.47,0,0,1,1.46,1.46Z"/></g></g></g></g></svg>